REM DIRINDEX 1\2\4,1\2\5,1\2\6,1\3\7,1\3\8
REM DIRNAME folder01,folder02,folder03,folder04,folder05,folder06,folder07,folder08
TITLE ""
FILE "009_Lesson 07_Output_Stage.mp3" MP3
  TRACK 01 AUDIO
    TITLE "0:"
    INDEX 01 00:00:00
  TRACK 02 AUDIO
    TITLE "8:cjc128_2712"
    INDEX 01 00:00:07
  TRACK 03 AUDIO
    TITLE "0:"
    INDEX 01 00:02:69
  TRACK 04 AUDIO
    TITLE "8:cjc128_2713"
    INDEX 01 00:03:41
  TRACK 05 AUDIO
    TITLE "0:"
    INDEX 01 00:05:32
  TRACK 06 AUDIO
    TITLE "7:cjc128_2714"
    INDEX 01 00:06:20
  TRACK 07 AUDIO
    TITLE "0:"
    INDEX 01 00:08:09
  TRACK 08 AUDIO
    TITLE "8:cjc128_2715"
    INDEX 01 00:10:35
  TRACK 09 AUDIO
    TITLE "0:"
    INDEX 01 00:12:24
  TRACK 10 AUDIO
    TITLE "7:cjc128_2716"
    INDEX 01 00:13:06
  TRACK 11 AUDIO
    TITLE "0:"
    INDEX 01 00:15:03
  TRACK 12 AUDIO
    TITLE "8:cjc128_2717"
    INDEX 01 00:17:35
  TRACK 13 AUDIO
    TITLE "0:"
    INDEX 01 00:19:28
  TRACK 14 AUDIO
    TITLE "7:cjc128_2718"
    INDEX 01 00:20:14
  TRACK 15 AUDIO
    TITLE "0:"
    INDEX 01 00:22:34
  TRACK 16 AUDIO
    TITLE "8:cjc128_2719"
    INDEX 01 00:25:35
  TRACK 17 AUDIO
    TITLE "0:"
    INDEX 01 00:27:32
  TRACK 18 AUDIO
    TITLE "7:cjc128_2720"
    INDEX 01 00:28:17
  TRACK 19 AUDIO
    TITLE "0:"
    INDEX 01 00:30:10
  TRACK 20 AUDIO
    TITLE "8:cjc128_2721"
    INDEX 01 00:32:43
  TRACK 21 AUDIO
    TITLE "0:"
    INDEX 01 00:34:45
  TRACK 22 AUDIO
    TITLE "7:cjc128_2722"
    INDEX 01 00:35:17
  TRACK 23 AUDIO
    TITLE "0:"
    INDEX 01 00:37:71
  TRACK 24 AUDIO
    TITLE "8:cjc128_2723"
    INDEX 01 00:41:06
  TRACK 25 AUDIO
    TITLE "0:"
    INDEX 01 00:43:01
  TRACK 26 AUDIO
    TITLE "7:cjc128_2724"
    INDEX 01 00:43:68
  TRACK 27 AUDIO
    TITLE "0:"
    INDEX 01 00:45:65
  TRACK 28 AUDIO
    TITLE "8:cjc128_2725"
    INDEX 01 00:48:42
  TRACK 29 AUDIO
    TITLE "0:"
    INDEX 01 00:50:39
  TRACK 30 AUDIO
    TITLE "7:cjc128_2726"
    INDEX 01 00:51:16
  TRACK 31 AUDIO
    TITLE "0:"
    INDEX 01 00:54:29
  TRACK 32 AUDIO
    TITLE "8:cjc128_2727"
    INDEX 01 00:58:01
  TRACK 33 AUDIO
    TITLE "0:"
    INDEX 01 00:59:63
  TRACK 34 AUDIO
    TITLE "7:cjc128_2728"
    INDEX 01 01:00:43
  TRACK 35 AUDIO
    TITLE "0:"
    INDEX 01 01:03:33
  TRACK 36 AUDIO
    TITLE "8:cjc128_2729"
    INDEX 01 01:06:67
  TRACK 37 AUDIO
    TITLE "0:"
    INDEX 01 01:08:68
  TRACK 38 AUDIO
    TITLE "7:cjc128_2730"
    INDEX 01 01:09:50
  TRACK 39 AUDIO
    TITLE "0:"
    INDEX 01 01:11:54
  TRACK 40 AUDIO
    TITLE "8:cjc128_2731"
    INDEX 01 01:14:21
  TRACK 41 AUDIO
    TITLE "0:"
    INDEX 01 01:15:66
  TRACK 42 AUDIO
    TITLE "7:cjc128_2732"
    INDEX 01 01:16:52
  TRACK 43 AUDIO
    TITLE "0:"
    INDEX 01 01:18:56
  TRACK 44 AUDIO
    TITLE "8:cjc128_2733"
    INDEX 01 01:21:20
  TRACK 45 AUDIO
    TITLE "0:"
    INDEX 01 01:23:16
  TRACK 46 AUDIO
    TITLE "7:cjc128_2734"
    INDEX 01 01:23:73
  TRACK 47 AUDIO
    TITLE "0:"
    INDEX 01 01:26:09
  TRACK 48 AUDIO
    TITLE "8:cjc128_2735"
    INDEX 01 01:28:61
  TRACK 49 AUDIO
    TITLE "0:"
    INDEX 01 01:30:54
  TRACK 50 AUDIO
    TITLE "7:cjc128_2736"
    INDEX 01 01:31:41
  TRACK 51 AUDIO
    TITLE "0:"
    INDEX 01 01:33:46
  TRACK 52 AUDIO
    TITLE "8:cjc128_2737"
    INDEX 01 01:36:15
  TRACK 53 AUDIO
    TITLE "0:"
    INDEX 01 01:38:08
  TRACK 54 AUDIO
    TITLE "7:cjc128_2738"
    INDEX 01 01:38:69
  TRACK 55 AUDIO
    TITLE "0:"
    INDEX 01 01:40:62
  TRACK 56 AUDIO
    TITLE "8:cjc128_2739"
    INDEX 01 01:43:17
  TRACK 57 AUDIO
    TITLE "0:"
    INDEX 01 01:45:14
  TRACK 58 AUDIO
    TITLE "7:cjc128_2740"
    INDEX 01 01:45:67
  TRACK 59 AUDIO
    TITLE "0:"
    INDEX 01 01:48:18
  TRACK 60 AUDIO
    TITLE "8:cjc128_2741"
    INDEX 01 01:51:05
  TRACK 61 AUDIO
    TITLE "0:"
    INDEX 01 01:53:06
  TRACK 62 AUDIO
    TITLE "7:cjc128_2742"
    INDEX 01 01:53:57
  TRACK 63 AUDIO
    TITLE "0:"
    INDEX 01 01:55:62
  TRACK 64 AUDIO
    TITLE "8:cjc128_2743"
    INDEX 01 01:58:32
  TRACK 65 AUDIO
    TITLE "0:"
    INDEX 01 02:00:29
  TRACK 66 AUDIO
    TITLE "7:cjc128_2744"
    INDEX 01 02:01:13
  TRACK 67 AUDIO
    TITLE "0:"
    INDEX 01 02:03:06
  TRACK 68 AUDIO
    TITLE "8:cjc128_2745"
    INDEX 01 02:05:46
  TRACK 69 AUDIO
    TITLE "0:"
    INDEX 01 02:07:39
  TRACK 70 AUDIO
    TITLE "7:cjc128_2746"
    INDEX 01 02:08:25
  TRACK 71 AUDIO
    TITLE "0:"
    INDEX 01 02:09:56
  TRACK 72 AUDIO
    TITLE "8:cjc128_2747"
    INDEX 01 02:11:53
  TRACK 73 AUDIO
    TITLE "0:"
    INDEX 01 02:13:38
  TRACK 74 AUDIO
    TITLE "7:cjc128_2748"
    INDEX 01 02:14:24
  TRACK 75 AUDIO
    TITLE "0:"
    INDEX 01 02:15:74
  TRACK 76 AUDIO
    TITLE "8:cjc128_2749"
    INDEX 01 02:18:06
  TRACK 77 AUDIO
    TITLE "0:"
    INDEX 01 02:19:74
  TRACK 78 AUDIO
    TITLE "7:cjc128_2750"
    INDEX 01 02:20:58
  TRACK 79 AUDIO
    TITLE "0:"
    INDEX 01 02:22:51
  TRACK 80 AUDIO
    TITLE "8:cjc128_2751"
    INDEX 01 02:25:18
  TRACK 81 AUDIO
    TITLE "0:"
    INDEX 01 02:26:62
  TRACK 82 AUDIO
    TITLE "7:cjc128_2752"
    INDEX 01 02:27:52
  TRACK 83 AUDIO
    TITLE "0:"
    INDEX 01 02:29:74
  TRACK 84 AUDIO
    TITLE "8:cjc128_2753"
    INDEX 01 02:32:55
  TRACK 85 AUDIO
    TITLE "0:"
    INDEX 01 02:34:48
  TRACK 86 AUDIO
    TITLE "7:cjc128_2754"
    INDEX 01 02:35:30
  TRACK 87 AUDIO
    TITLE "0:"
    INDEX 01 02:38:06
  TRACK 88 AUDIO
    TITLE "8:cjc128_2755"
    INDEX 01 02:41:26
  TRACK 89 AUDIO
    TITLE "0:"
    INDEX 01 02:43:19
  TRACK 90 AUDIO
    TITLE "7:cjc128_2756"
    INDEX 01 02:44:07
  TRACK 91 AUDIO
    TITLE "0:"
    INDEX 01 02:46:00
  TRACK 92 AUDIO
    TITLE "8:cjc128_2757"
    INDEX 01 02:48:28
  TRACK 93 AUDIO
    TITLE "0:"
    INDEX 01 02:50:21
  TRACK 94 AUDIO
    TITLE "7:cjc128_2758"
    INDEX 01 02:51:07
  TRACK 95 AUDIO
    TITLE "0:"
    INDEX 01 02:53:14
  TRACK 96 AUDIO
    TITLE "8:cjc128_2759"
    INDEX 01 02:55:72
  TRACK 97 AUDIO
    TITLE "0:"
    INDEX 01 02:57:67
  TRACK 98 AUDIO
    TITLE "7:cjc128_2760"
    INDEX 01 02:58:52
  TRACK 99 AUDIO
    TITLE "0:"
    INDEX 01 03:00:37
  TRACK 100 AUDIO
    TITLE "8:cjc128_2761"
    INDEX 01 03:02:64
  TRACK 101 AUDIO
    TITLE "0:"
    INDEX 01 03:04:74
  TRACK 102 AUDIO
    TITLE "7:cjc128_2762"
    INDEX 01 03:05:52
  TRACK 103 AUDIO
    TITLE "0:"
    INDEX 01 03:08:55
  TRACK 104 AUDIO
    TITLE "8:cjc128_2763"
    INDEX 01 03:12:27
  TRACK 105 AUDIO
    TITLE "0:"
    INDEX 01 03:14:24
  TRACK 106 AUDIO
    TITLE "7:cjc128_2764"
    INDEX 01 03:15:14
  TRACK 107 AUDIO
    TITLE "0:"
    INDEX 01 03:17:14
  TRACK 108 AUDIO
    TITLE "8:cjc128_2765"
    INDEX 01 03:19:49
  TRACK 109 AUDIO
    TITLE "0:"
    INDEX 01 03:21:44
  TRACK 110 AUDIO
    TITLE "7:cjc128_2766"
    INDEX 01 03:22:31
  TRACK 111 AUDIO
    TITLE "0:"
    INDEX 01 03:24:65
